# Blender 4.0.1
# www.blender.org
mtllib bench_seats.mtl
o Asiento12
v 3.078738 -0.469546 0.397692
v 3.085430 -0.465911 0.397692
v 3.089786 -0.451895 0.397692
v 3.085279 -0.408640 0.397692
v 3.065105 -0.280036 0.397692
v 3.048074 -0.243337 0.397692
v 3.029059 -0.223707 0.397692
v 2.991641 -0.207146 0.397692
v 2.940306 -0.200785 0.397692
v 3.073719 -0.482677 0.397692
v 2.865267 -0.203404 0.397692
v 2.834798 -0.212574 0.397692
v 2.798849 -0.231228 0.397692
v 2.778018 -0.281158 0.397692
v 2.769572 -0.354081 0.397692
v 2.757556 -0.410700 0.397692
v 2.759636 -0.449182 0.397692
v 2.769046 -0.468165 0.397692
v 2.799012 -0.497645 0.397692
v 2.915058 -0.501116 0.397692
v 2.924593 -0.505783 0.397692
v 2.938793 -0.506079 0.397692
v 3.048854 -0.492664 0.397692
v 2.993993 -0.498703 0.397692
v 2.940753 -0.499888 0.397692
v 3.080729 -0.467673 0.198631
v 3.080729 -0.461006 0.398631
v 2.768778 -0.461006 0.198631
v 2.768778 -0.467673 0.398631
v 1.140845 -0.469546 0.397692
v 1.147537 -0.465911 0.397692
v 1.151893 -0.451895 0.397692
v 1.147385 -0.408641 0.397692
v 1.132105 -0.314121 0.397692
v 1.124903 -0.273393 0.397692
v 1.110181 -0.243337 0.397692
v 1.091166 -0.223707 0.397692
v 1.053748 -0.207146 0.397692
v 1.002413 -0.200785 0.397692
v 1.135826 -0.482677 0.397692
v 0.927374 -0.203404 0.397692
v 0.896904 -0.212574 0.397692
v 0.860956 -0.231228 0.397692
v 0.840125 -0.281158 0.397692
v 0.831680 -0.354077 0.397692
v 0.819664 -0.410700 0.397692
v 0.821743 -0.449182 0.397692
v 0.831153 -0.468165 0.397692
v 0.861119 -0.497645 0.397692
v 0.977165 -0.501116 0.397692
v 0.986700 -0.505783 0.397692
v 1.000900 -0.506079 0.397692
v 1.110962 -0.492663 0.397692
v 1.056100 -0.498703 0.397692
v 1.002860 -0.499888 0.397692
v 1.142836 -0.467673 0.198631
v 1.142836 -0.461007 0.398631
v 0.830885 -0.461007 0.198631
v 0.830885 -0.467673 0.398631
v -0.052289 -0.469546 0.397692
v -0.045597 -0.465911 0.397692
v -0.041241 -0.451895 0.397692
v -0.045749 -0.408641 0.397692
v -0.061029 -0.314121 0.397692
v -0.068231 -0.273393 0.397692
v -0.082953 -0.243337 0.397692
v -0.101969 -0.223708 0.397692
v -0.139386 -0.207146 0.397692
v -0.190721 -0.200785 0.397692
v -0.057308 -0.482677 0.397692
v -0.265760 -0.203404 0.397692
v -0.296230 -0.212574 0.397692
v -0.332178 -0.231228 0.397692
v -0.353009 -0.281158 0.397692
v -0.361454 -0.354077 0.397692
v -0.373471 -0.410700 0.397692
v -0.371391 -0.449183 0.397692
v -0.361981 -0.468165 0.397692
v -0.332014 -0.497645 0.397692
v -0.215969 -0.501116 0.397692
v -0.206434 -0.505783 0.397692
v -0.192234 -0.506079 0.397692
v -0.082173 -0.492664 0.397692
v -0.137034 -0.498703 0.397692
v -0.190274 -0.499888 0.397692
v -0.050299 -0.467673 0.198631
v -0.050299 -0.461007 0.398631
v -0.362249 -0.461007 0.198631
v -0.362249 -0.467673 0.398631
v -1.206212 -0.469546 0.397692
v -1.199520 -0.465911 0.397692
v -1.195164 -0.451895 0.397692
v -1.199672 -0.408637 0.397692
v -1.219846 -0.280035 0.397692
v -1.236876 -0.243337 0.397692
v -1.255892 -0.223708 0.397692
v -1.293309 -0.207146 0.397692
v -1.344644 -0.200785 0.397692
v -1.211232 -0.482678 0.397692
v -1.419683 -0.203404 0.397692
v -1.450153 -0.212574 0.397692
v -1.486100 -0.231228 0.397692
v -1.506932 -0.281155 0.397692
v -1.515378 -0.354077 0.397692
v -1.527394 -0.410699 0.397692
v -1.525314 -0.449183 0.397692
v -1.515904 -0.468165 0.397692
v -1.485937 -0.497645 0.397692
v -1.369892 -0.501116 0.397692
v -1.360357 -0.505783 0.397692
v -1.346157 -0.506079 0.397692
v -1.236096 -0.492664 0.397692
v -1.290957 -0.498704 0.397692
v -1.344198 -0.499888 0.397692
v -1.204222 -0.467673 0.198632
v -1.204222 -0.461007 0.398632
v -1.516172 -0.461007 0.198632
v -1.516172 -0.467673 0.398632
v -0.832560 -0.469546 0.397692
v -0.825868 -0.465911 0.397692
v -0.821512 -0.451895 0.397692
v -0.826019 -0.408642 0.397692
v -0.841300 -0.314126 0.397692
v -0.848502 -0.273394 0.397692
v -0.863224 -0.243337 0.397692
v -0.882239 -0.223708 0.397692
v -0.919657 -0.207146 0.397692
v -0.970992 -0.200785 0.397692
v -0.837579 -0.482677 0.397692
v -1.046031 -0.203404 0.397692
v -1.076500 -0.212574 0.397692
v -1.112448 -0.231228 0.397692
v -1.133280 -0.281158 0.397692
v -1.141727 -0.354089 0.397692
v -1.153742 -0.410701 0.397692
v -1.151663 -0.449182 0.397692
v -1.142252 -0.468165 0.397692
v -1.112286 -0.497645 0.397692
v -0.996240 -0.501116 0.397692
v -0.986705 -0.505783 0.397692
v -0.972505 -0.506079 0.397692
v -0.862443 -0.492664 0.397692
v -0.917305 -0.498704 0.397692
v -0.970545 -0.499888 0.397692
v -0.830570 -0.467673 0.198631
v -0.830570 -0.461007 0.398631
v -1.142521 -0.461007 0.198631
v -1.142521 -0.467673 0.398631
v -0.425940 -0.469546 0.397692
v -0.419249 -0.465911 0.397692
v -0.414892 -0.451895 0.397692
v -0.419400 -0.408641 0.397692
v -0.434680 -0.314121 0.397692
v -0.441882 -0.273393 0.397692
v -0.456604 -0.243337 0.397692
v -0.475620 -0.223708 0.397692
v -0.513037 -0.207146 0.397692
v -0.564372 -0.200785 0.397692
v -0.430959 -0.482677 0.397692
v -0.639411 -0.203404 0.397692
v -0.669880 -0.212574 0.397692
v -0.705829 -0.231228 0.397692
v -0.726660 -0.281159 0.397692
v -0.735106 -0.354078 0.397692
v -0.747122 -0.410699 0.397692
v -0.745042 -0.449183 0.397692
v -0.735632 -0.468165 0.397692
v -0.705666 -0.497645 0.397692
v -0.589620 -0.501116 0.397692
v -0.580085 -0.505783 0.397692
v -0.565885 -0.506079 0.397692
v -0.455824 -0.492664 0.397692
v -0.510685 -0.498703 0.397692
v -0.563925 -0.499888 0.397692
v -0.423949 -0.467673 0.198631
v -0.423949 -0.461007 0.398631
v -0.735900 -0.461007 0.198631
v -0.735900 -0.467673 0.398631
v 0.358727 -0.469546 0.397692
v 0.365418 -0.465911 0.397692
v 0.369775 -0.451895 0.397692
v 0.365267 -0.408640 0.397692
v 0.345094 -0.280037 0.397692
v 0.328063 -0.243337 0.397692
v 0.309047 -0.223708 0.397692
v 0.271630 -0.207146 0.397692
v 0.220295 -0.200785 0.397692
v 0.353708 -0.482677 0.397692
v 0.145256 -0.203404 0.397692
v 0.114786 -0.212574 0.397692
v 0.078838 -0.231228 0.397692
v 0.058007 -0.281158 0.397692
v 0.049561 -0.354083 0.397692
v 0.037545 -0.410699 0.397692
v 0.039625 -0.449182 0.397692
v 0.049035 -0.468165 0.397692
v 0.079001 -0.497645 0.397692
v 0.195047 -0.501116 0.397692
v 0.204582 -0.505783 0.397692
v 0.218781 -0.506079 0.397692
v 0.328843 -0.492664 0.397692
v 0.273983 -0.498703 0.397692
v 0.220742 -0.499888 0.397692
v 0.360718 -0.467673 0.198631
v 0.360718 -0.461007 0.398631
v 0.048767 -0.461007 0.198631
v 0.048767 -0.467673 0.398631
v 0.732379 -0.469546 0.397692
v 0.739071 -0.465911 0.397692
v 0.743427 -0.451895 0.397692
v 0.738919 -0.408641 0.397692
v 0.723639 -0.314121 0.397692
v 0.716437 -0.273393 0.397692
v 0.701715 -0.243337 0.397692
v 0.682700 -0.223708 0.397692
v 0.645282 -0.207146 0.397692
v 0.593947 -0.200785 0.397692
v 0.727360 -0.482677 0.397692
v 0.518908 -0.203404 0.397692
v 0.488439 -0.212574 0.397692
v 0.452490 -0.231228 0.397692
v 0.431659 -0.281158 0.397692
v 0.423214 -0.354077 0.397692
v 0.411197 -0.410700 0.397692
v 0.413277 -0.449183 0.397692
v 0.422687 -0.468165 0.397692
v 0.452654 -0.497645 0.397692
v 0.568699 -0.501116 0.397692
v 0.578234 -0.505783 0.397692
v 0.592434 -0.506079 0.397692
v 0.702496 -0.492664 0.397692
v 0.647635 -0.498703 0.397692
v 0.594394 -0.499888 0.397692
v 0.734370 -0.467673 0.198631
v 0.734370 -0.461007 0.398631
v 0.422419 -0.461007 0.198631
v 0.422419 -0.467673 0.398631
v 1.514498 -0.469546 0.397692
v 1.521190 -0.465911 0.397692
v 1.525546 -0.451895 0.397692
v 1.521039 -0.408641 0.397692
v 1.500865 -0.280036 0.397692
v 1.483834 -0.243337 0.397692
v 1.464819 -0.223707 0.397692
v 1.427401 -0.207146 0.397692
v 1.376066 -0.200785 0.397692
v 1.509479 -0.482677 0.397692
v 1.301027 -0.203404 0.397692
v 1.270558 -0.212574 0.397692
v 1.234609 -0.231228 0.397692
v 1.213778 -0.281157 0.397692
v 1.205332 -0.354081 0.397692
v 1.193316 -0.410699 0.397692
v 1.195396 -0.449183 0.397692
v 1.204806 -0.468165 0.397692
v 1.234773 -0.497645 0.397692
v 1.350818 -0.501116 0.397692
v 1.360353 -0.505783 0.397692
v 1.374553 -0.506079 0.397692
v 1.484614 -0.492664 0.397692
v 1.429753 -0.498703 0.397692
v 1.376513 -0.499888 0.397692
v 1.516489 -0.467673 0.198631
v 1.516489 -0.461007 0.398631
v 1.204538 -0.461007 0.198631
v 1.204538 -0.467673 0.398631
v 1.922968 -0.469546 0.397692
v 1.929660 -0.465911 0.397692
v 1.934016 -0.451895 0.397692
v 1.929508 -0.408640 0.397692
v 1.914228 -0.314121 0.397692
v 1.907026 -0.273393 0.397692
v 1.892304 -0.243337 0.397692
v 1.873289 -0.223707 0.397692
v 1.835871 -0.207146 0.397692
v 1.784536 -0.200785 0.397692
v 1.917949 -0.482677 0.397692
v 1.709497 -0.203404 0.397692
v 1.679028 -0.212574 0.397692
v 1.643079 -0.231228 0.397692
v 1.622248 -0.281158 0.397692
v 1.613802 -0.354083 0.397692
v 1.601786 -0.410700 0.397692
v 1.603866 -0.449183 0.397692
v 1.613276 -0.468165 0.397692
v 1.643242 -0.497645 0.397692
v 1.759288 -0.501116 0.397692
v 1.768824 -0.505783 0.397692
v 1.783023 -0.506079 0.397692
v 1.893084 -0.492664 0.397692
v 1.838223 -0.498703 0.397692
v 1.784983 -0.499888 0.397692
v 1.924959 -0.467673 0.198631
v 1.924959 -0.461007 0.398631
v 1.613008 -0.461007 0.198631
v 1.613008 -0.467673 0.398631
v 2.296618 -0.469546 0.397692
v 2.303310 -0.465911 0.397692
v 2.307666 -0.451895 0.397692
v 2.303159 -0.408640 0.397692
v 2.282985 -0.280036 0.397692
v 2.265954 -0.243337 0.397692
v 2.246939 -0.223707 0.397692
v 2.209521 -0.207146 0.397692
v 2.158186 -0.200785 0.397692
v 2.291599 -0.482677 0.397692
v 2.083147 -0.203404 0.397692
v 2.052678 -0.212574 0.397692
v 2.016729 -0.231228 0.397692
v 1.995898 -0.281158 0.397692
v 1.987452 -0.354083 0.397692
v 1.975437 -0.410700 0.397692
v 1.977516 -0.449183 0.397692
v 1.986927 -0.468165 0.397692
v 2.016893 -0.497645 0.397692
v 2.132938 -0.501116 0.397692
v 2.142474 -0.505783 0.397692
v 2.156673 -0.506079 0.397692
v 2.266735 -0.492664 0.397692
v 2.211874 -0.498703 0.397692
v 2.158633 -0.499888 0.397692
v 2.298609 -0.467673 0.198631
v 2.298609 -0.461007 0.398631
v 1.986658 -0.461007 0.198631
v 1.986658 -0.467673 0.398631
v 2.705088 -0.469546 0.397692
v 2.711780 -0.465911 0.397692
v 2.716136 -0.451895 0.397692
v 2.711628 -0.408640 0.397692
v 2.691455 -0.280036 0.397692
v 2.674424 -0.243337 0.397692
v 2.655409 -0.223707 0.397692
v 2.617991 -0.207146 0.397692
v 2.566656 -0.200785 0.397692
v 2.700069 -0.482677 0.397692
v 2.491617 -0.203404 0.397692
v 2.461148 -0.212574 0.397692
v 2.425199 -0.231228 0.397692
v 2.404368 -0.281157 0.397692
v 2.395922 -0.354082 0.397692
v 2.383906 -0.410700 0.397692
v 2.385986 -0.449183 0.397692
v 2.395396 -0.468165 0.397692
v 2.425363 -0.497645 0.397692
v 2.541408 -0.501116 0.397692
v 2.550943 -0.505783 0.397692
v 2.565143 -0.506079 0.397692
v 2.675204 -0.492664 0.397692
v 2.620343 -0.498703 0.397692
v 2.567103 -0.499888 0.397692
v 2.707078 -0.467673 0.198631
v 2.707078 -0.461007 0.398631
v 2.395128 -0.461007 0.198631
v 2.395128 -0.467673 0.398631
vn -0.0000 -0.0000 -1.0000
vn 0.0214 -0.9992 0.0333
vn -0.0214 0.9992 0.0333
vn -0.0214 -0.9992 -0.0333
vn 0.0214 0.9992 -0.0333
vt 0.454023 0.780912
vt 0.494434 0.787757
vt 0.388728 0.871198
vt 0.458333 0.500000
vt 0.125000 0.750000
vt 0.125000 0.500000
vt 0.875000 0.500000
vt 0.541667 0.750000
vt 0.454023 0.780912
vt 0.494437 0.787757
vt 0.388728 0.871198
vt 0.458333 0.500000
vt 0.454023 0.780912
vt 0.454023 0.780912
vt 0.494437 0.787757
vt 0.388728 0.871198
vt 0.454022 0.780912
vt 0.494428 0.787756
vt 0.454023 0.780912
vt 0.494436 0.787757
vt 0.454023 0.780912
vt 0.494433 0.787756
vt 0.454023 0.780912
vt 0.494434 0.787757
vt 0.388728 0.871198
vt 0.454023 0.780912
vt 0.494433 0.787756
vt 0.494433 0.787756
vt 0.402990 0.961506
vt 0.395650 0.947746
vt 0.411928 0.964896
vt 0.391397 0.916401
vt 0.455464 0.968796
vt 0.424536 0.971216
vt 0.414538 0.968889
vt 0.547204 0.956486
vt 0.390499 0.885982
vt 0.385833 0.884836
vt 0.386044 0.876712
vt 0.573506 0.947354
vt 0.603188 0.885677
vt 0.392386 0.805262
vt 0.426489 0.781769
vt 0.412648 0.787457
vt 0.587527 0.936475
vt 0.599357 0.915069
vt 0.602030 0.842773
vt 0.546383 0.793423
vt 0.595480 0.825342
vt 0.581727 0.805458
vt 0.875000 0.750000
vt 0.402990 0.961506
vt 0.395650 0.947746
vt 0.391397 0.916402
vt 0.455463 0.968796
vt 0.414538 0.968889
vt 0.552037 0.955776
vt 0.522958 0.960048
vt 0.390499 0.885982
vt 0.392386 0.805262
vt 0.426489 0.781769
vt 0.546383 0.793423
vt 0.395650 0.947746
vt 0.455464 0.968796
vt 0.414538 0.968889
vt 0.392386 0.805262
vt 0.426489 0.781769
vt 0.412648 0.787457
vt 0.546383 0.793423
vt 0.581726 0.805458
vt 0.402990 0.961506
vt 0.391397 0.916401
vt 0.455466 0.968795
vt 0.414538 0.968889
vt 0.547205 0.956486
vt 0.390499 0.885982
vt 0.392386 0.805262
vt 0.426488 0.781769
vt 0.546385 0.793424
vt 0.581727 0.805458
vt 0.402990 0.961506
vt 0.395650 0.947746
vt 0.391397 0.916401
vt 0.455463 0.968796
vt 0.414538 0.968889
vt 0.522955 0.960049
vt 0.603188 0.885677
vt 0.390499 0.885982
vt 0.392386 0.805262
vt 0.426489 0.781769
vt 0.546383 0.793423
vt 0.392386 0.805262
vt 0.426488 0.781769
vt 0.412648 0.787457
vt 0.546383 0.793423
vt 0.581726 0.805457
vt 0.402990 0.961506
vt 0.391397 0.916402
vt 0.455464 0.968796
vt 0.414538 0.968889
vt 0.547204 0.956486
vt 0.390499 0.885982
vt 0.426489 0.781769
vt 0.412648 0.787457
vt 0.546383 0.793423
vt 0.581726 0.805458
vt 0.402990 0.961506
vt 0.455464 0.968796
vt 0.547204 0.956486
vt 0.603188 0.885677
vt 0.392386 0.805262
vt 0.426489 0.781769
vt 0.412648 0.787457
vt 0.546384 0.793424
vt 0.402990 0.961506
vt 0.395650 0.947746
vt 0.414538 0.968889
vt 0.522959 0.960048
vt 0.392386 0.805262
vt 0.581727 0.805458
vt 0.395650 0.947746
vt 0.455464 0.968796
vt 0.547204 0.956486
vt 0.581726 0.805458
vt 0.455464 0.968796
vt 0.390499 0.885982
vt 0.392386 0.805262
vt 0.546383 0.793424
s 0
usemtl plastico.013
f 16/1/1 15/2/1 20/3/1
f 29/4/2 26/5/2 27/6/2
f 27/7/3 28/8/3 29/4/3
f 10/29/1 23/30/1 1/31/1
f 23/30/1 24/32/1 4/33/1
f 3/34/1 2/35/1 1/31/1
f 4/33/1 3/34/1 1/31/1
f 23/30/1 4/33/1 1/31/1
f 5/36/1 4/33/1 25/37/1
f 25/37/1 4/33/1 24/32/1
f 25/37/1 22/38/1 21/39/1
f 25/37/1 21/39/1 20/3/1
f 6/40/1 5/36/1 9/41/1
f 20/3/1 19/42/1 17/43/1
f 19/42/1 18/44/1 17/43/1
f 5/36/1 25/37/1 15/2/1
f 25/37/1 20/3/1 15/2/1
f 7/45/1 6/40/1 8/46/1
f 9/41/1 8/46/1 6/40/1
f 11/47/1 9/41/1 14/48/1
f 14/48/1 5/36/1 15/2/1
f 12/49/1 11/47/1 14/48/1
f 14/48/1 13/50/1 12/49/1
f 5/36/1 14/48/1 9/41/1
f 17/43/1 16/1/1 20/3/1
f 29/4/4 28/8/4 26/5/4
f 27/7/5 26/51/5 28/8/5
usemtl plastico.006
f 46/9/1 45/10/1 50/11/1
f 59/12/2 56/5/2 57/6/2
f 57/7/3 58/8/3 59/12/3
f 40/52/1 53/53/1 30/31/1
f 53/53/1 54/54/1 33/55/1
f 32/34/1 31/56/1 30/31/1
f 33/55/1 32/34/1 30/31/1
f 53/53/1 33/55/1 30/31/1
f 35/57/1 34/58/1 39/41/1
f 34/58/1 33/55/1 55/59/1
f 55/59/1 33/55/1 54/54/1
f 55/59/1 52/38/1 51/39/1
f 55/59/1 51/39/1 50/11/1
f 36/40/1 35/57/1 39/41/1
f 50/11/1 49/60/1 47/61/1
f 49/60/1 48/44/1 47/61/1
f 34/58/1 55/59/1 45/10/1
f 55/59/1 50/11/1 45/10/1
f 37/45/1 36/40/1 38/46/1
f 39/41/1 38/46/1 36/40/1
f 41/47/1 39/41/1 44/62/1
f 44/62/1 34/58/1 45/10/1
f 42/49/1 41/47/1 44/62/1
f 44/62/1 43/50/1 42/49/1
f 34/58/1 44/62/1 39/41/1
f 47/61/1 46/9/1 50/11/1
f 59/12/4 58/8/4 56/5/4
f 57/7/5 56/51/5 58/8/5
usemtl plastico.003
f 76/13/1 75/10/1 80/11/1
f 89/4/2 86/5/2 87/6/2
f 87/7/3 88/8/3 89/4/3
f 70/52/1 83/63/1 60/31/1
f 83/63/1 84/54/1 63/64/1
f 62/34/1 61/65/1 60/31/1
f 63/64/1 62/34/1 60/31/1
f 83/63/1 63/64/1 60/31/1
f 65/57/1 64/58/1 69/41/1
f 64/58/1 63/64/1 85/59/1
f 85/59/1 63/64/1 84/54/1
f 85/59/1 82/38/1 81/39/1
f 85/59/1 81/39/1 80/11/1
f 66/40/1 65/57/1 69/41/1
f 80/11/1 79/66/1 77/67/1
f 79/66/1 78/68/1 77/67/1
f 64/58/1 85/59/1 75/10/1
f 85/59/1 80/11/1 75/10/1
f 67/45/1 66/40/1 68/46/1
f 69/41/1 68/46/1 66/40/1
f 71/47/1 69/41/1 74/69/1
f 74/69/1 64/58/1 75/10/1
f 72/49/1 71/47/1 74/69/1
f 74/69/1 73/70/1 72/49/1
f 64/58/1 74/69/1 69/41/1
f 77/67/1 76/13/1 80/11/1
f 89/4/4 88/8/4 86/5/4
f 87/7/5 86/51/5 88/8/5
usemtl plastico.012
f 105/14/1 104/15/1 109/16/1
f 118/4/2 115/5/2 116/6/2
f 116/7/3 117/8/3 118/4/3
f 99/71/1 112/63/1 90/31/1
f 112/63/1 113/72/1 93/73/1
f 92/34/1 91/74/1 90/31/1
f 93/73/1 92/34/1 90/31/1
f 112/63/1 93/73/1 90/31/1
f 94/75/1 93/73/1 114/76/1
f 114/76/1 93/73/1 113/72/1
f 114/76/1 111/38/1 110/39/1
f 114/76/1 110/39/1 109/16/1
f 95/40/1 94/75/1 98/41/1
f 109/16/1 108/77/1 106/78/1
f 108/77/1 107/44/1 106/78/1
f 94/75/1 114/76/1 104/15/1
f 114/76/1 109/16/1 104/15/1
f 96/45/1 95/40/1 97/46/1
f 98/41/1 97/46/1 95/40/1
f 100/47/1 98/41/1 103/79/1
f 103/79/1 94/75/1 104/15/1
f 101/49/1 100/47/1 103/79/1
f 103/79/1 102/80/1 101/49/1
f 94/75/1 103/79/1 98/41/1
f 106/78/1 105/14/1 109/16/1
f 118/4/4 117/8/4 115/5/4
f 116/7/5 115/51/5 117/8/5
usemtl plastico.001
f 135/17/1 134/18/1 139/16/1
f 148/4/2 145/5/2 146/6/2
f 146/7/3 147/8/3 148/4/3
f 129/81/1 142/82/1 119/31/1
f 142/82/1 143/83/1 122/84/1
f 121/34/1 120/85/1 119/31/1
f 122/84/1 121/34/1 119/31/1
f 142/82/1 122/84/1 119/31/1
f 124/57/1 123/86/1 128/87/1
f 123/86/1 122/84/1 144/88/1
f 144/88/1 122/84/1 143/83/1
f 144/88/1 141/38/1 140/39/1
f 144/88/1 140/39/1 139/16/1
f 125/40/1 124/57/1 128/87/1
f 139/16/1 138/89/1 136/90/1
f 138/89/1 137/44/1 136/90/1
f 123/86/1 144/88/1 134/18/1
f 144/88/1 139/16/1 134/18/1
f 126/45/1 125/40/1 127/46/1
f 128/87/1 127/46/1 125/40/1
f 130/47/1 128/87/1 133/91/1
f 133/91/1 123/86/1 134/18/1
f 131/49/1 130/47/1 133/91/1
f 133/91/1 132/80/1 131/49/1
f 123/86/1 133/91/1 128/87/1
f 136/90/1 135/17/1 139/16/1
f 148/4/4 147/8/4 145/5/4
f 146/7/5 145/51/5 147/8/5
usemtl plastico.002
f 165/19/1 164/20/1 169/3/1
f 178/4/2 175/5/2 176/6/2
f 176/7/3 177/8/3 178/4/3
f 159/52/1 172/63/1 149/31/1
f 172/63/1 173/54/1 152/64/1
f 151/34/1 150/65/1 149/31/1
f 152/64/1 151/34/1 149/31/1
f 172/63/1 152/64/1 149/31/1
f 154/57/1 153/58/1 158/87/1
f 153/58/1 152/64/1 174/59/1
f 174/59/1 152/64/1 173/54/1
f 174/59/1 171/38/1 170/39/1
f 174/59/1 170/39/1 169/3/1
f 155/40/1 154/57/1 158/87/1
f 169/3/1 168/92/1 166/93/1
f 168/92/1 167/94/1 166/93/1
f 153/58/1 174/59/1 164/20/1
f 174/59/1 169/3/1 164/20/1
f 156/45/1 155/40/1 157/46/1
f 158/87/1 157/46/1 155/40/1
f 160/47/1 158/87/1 163/95/1
f 163/95/1 153/58/1 164/20/1
f 161/49/1 160/47/1 163/95/1
f 163/95/1 162/96/1 161/49/1
f 153/58/1 163/95/1 158/87/1
f 166/93/1 165/19/1 169/3/1
f 178/4/4 177/8/4 175/5/4
f 176/7/5 175/51/5 177/8/5
usemtl plastico.004
f 194/21/1 193/22/1 198/16/1
f 207/4/2 204/5/2 205/6/2
f 205/7/3 206/8/3 207/4/3
f 188/97/1 201/63/1 179/31/1
f 201/63/1 202/98/1 182/99/1
f 181/34/1 180/100/1 179/31/1
f 182/99/1 181/34/1 179/31/1
f 201/63/1 182/99/1 179/31/1
f 183/101/1 182/99/1 203/102/1
f 203/102/1 182/99/1 202/98/1
f 203/102/1 200/38/1 199/39/1
f 203/102/1 199/39/1 198/16/1
f 184/40/1 183/101/1 187/41/1
f 198/16/1 197/60/1 195/103/1
f 197/60/1 196/104/1 195/103/1
f 183/101/1 203/102/1 193/22/1
f 203/102/1 198/16/1 193/22/1
f 185/45/1 184/40/1 186/46/1
f 187/41/1 186/46/1 184/40/1
f 189/47/1 187/41/1 192/105/1
f 192/105/1 183/101/1 193/22/1
f 190/49/1 189/47/1 192/105/1
f 192/105/1 191/106/1 190/49/1
f 183/101/1 192/105/1 187/41/1
f 195/103/1 194/21/1 198/16/1
f 207/4/4 206/8/4 204/5/4
f 205/7/5 204/51/5 206/8/5
usemtl plastico.005
f 224/13/1 223/10/1 228/11/1
f 237/4/2 234/5/2 235/6/2
f 235/7/3 236/8/3 237/4/3
f 218/52/1 231/53/1 208/31/1
f 231/53/1 232/54/1 211/64/1
f 210/34/1 209/65/1 208/31/1
f 211/64/1 210/34/1 208/31/1
f 231/53/1 211/64/1 208/31/1
f 213/57/1 212/58/1 217/41/1
f 212/58/1 211/64/1 233/59/1
f 233/59/1 211/64/1 232/54/1
f 233/59/1 230/38/1 229/39/1
f 233/59/1 229/39/1 228/11/1
f 214/40/1 213/57/1 217/41/1
f 228/11/1 227/66/1 225/67/1
f 227/66/1 226/68/1 225/67/1
f 212/58/1 233/59/1 223/10/1
f 233/59/1 228/11/1 223/10/1
f 215/45/1 214/40/1 216/46/1
f 217/41/1 216/46/1 214/40/1
f 219/47/1 217/41/1 222/62/1
f 222/62/1 212/58/1 223/10/1
f 220/49/1 219/47/1 222/62/1
f 222/62/1 221/50/1 220/49/1
f 212/58/1 222/62/1 217/41/1
f 225/67/1 224/13/1 228/11/1
f 237/4/4 236/8/4 234/5/4
f 235/7/5 234/51/5 236/8/5
usemtl plastico.007
f 253/23/1 252/24/1 257/25/1
f 266/12/2 263/5/2 264/6/2
f 264/7/3 265/8/3 266/12/3
f 247/107/1 260/30/1 238/31/1
f 260/30/1 261/54/1 241/108/1
f 240/34/1 239/100/1 238/31/1
f 241/108/1 240/34/1 238/31/1
f 260/30/1 241/108/1 238/31/1
f 242/109/1 241/108/1 262/102/1
f 262/102/1 241/108/1 261/54/1
f 262/102/1 259/38/1 258/39/1
f 262/102/1 258/39/1 257/25/1
f 243/40/1 242/109/1 246/110/1
f 257/25/1 256/111/1 254/112/1
f 256/111/1 255/113/1 254/112/1
f 242/109/1 262/102/1 252/24/1
f 262/102/1 257/25/1 252/24/1
f 244/45/1 243/40/1 245/46/1
f 246/110/1 245/46/1 243/40/1
f 248/47/1 246/110/1 251/114/1
f 251/114/1 242/109/1 252/24/1
f 249/49/1 248/47/1 251/114/1
f 251/114/1 250/50/1 249/49/1
f 242/109/1 251/114/1 246/110/1
f 254/112/1 253/23/1 257/25/1
f 266/12/4 265/8/4 263/5/4
f 264/7/5 263/51/5 265/8/5
usemtl plastico.008
f 283/26/1 282/27/1 287/25/1
f 296/12/2 293/5/2 294/6/2
f 294/7/3 295/8/3 296/12/3
f 277/115/1 290/116/1 267/31/1
f 290/116/1 291/83/1 270/33/1
f 269/34/1 268/117/1 267/31/1
f 270/33/1 269/34/1 267/31/1
f 290/116/1 270/33/1 267/31/1
f 272/57/1 271/118/1 276/41/1
f 271/118/1 270/33/1 292/102/1
f 292/102/1 270/33/1 291/83/1
f 292/102/1 289/38/1 288/39/1
f 292/102/1 288/39/1 287/25/1
f 273/40/1 272/57/1 276/41/1
f 287/25/1 286/119/1 284/112/1
f 286/119/1 285/113/1 284/112/1
f 271/118/1 292/102/1 282/27/1
f 292/102/1 287/25/1 282/27/1
f 274/45/1 273/40/1 275/46/1
f 276/41/1 275/46/1 273/40/1
f 278/47/1 276/41/1 281/91/1
f 281/91/1 271/118/1 282/27/1
f 279/49/1 278/47/1 281/91/1
f 281/91/1 280/120/1 279/49/1
f 271/118/1 281/91/1 276/41/1
f 284/112/1 283/26/1 287/25/1
f 296/12/4 295/8/4 293/5/4
f 294/7/5 293/51/5 295/8/5
usemtl plastico.009
f 312/26/1 311/27/1 316/3/1
f 325/12/2 322/5/2 323/6/2
f 323/7/3 324/8/3 325/12/3
f 306/29/1 319/121/1 297/31/1
f 319/121/1 320/32/1 300/122/1
f 299/34/1 298/35/1 297/31/1
f 300/122/1 299/34/1 297/31/1
f 319/121/1 300/122/1 297/31/1
f 301/123/1 300/122/1 321/102/1
f 321/102/1 300/122/1 320/32/1
f 321/102/1 318/38/1 317/39/1
f 321/102/1 317/39/1 316/3/1
f 302/40/1 301/123/1 305/41/1
f 316/3/1 315/119/1 313/112/1
f 315/119/1 314/113/1 313/112/1
f 301/123/1 321/102/1 311/27/1
f 321/102/1 316/3/1 311/27/1
f 303/45/1 302/40/1 304/46/1
f 305/41/1 304/46/1 302/40/1
f 307/47/1 305/41/1 310/91/1
f 310/91/1 301/123/1 311/27/1
f 308/49/1 307/47/1 310/91/1
f 310/91/1 309/124/1 308/49/1
f 301/123/1 310/91/1 305/41/1
f 313/112/1 312/26/1 316/3/1
f 325/12/4 324/8/4 322/5/4
f 323/7/5 322/51/5 324/8/5
usemtl plastico.010
f 341/9/1 340/28/1 345/3/1
f 354/12/2 351/5/2 352/6/2
f 352/7/3 353/8/3 354/12/3
f 335/29/1 348/30/1 326/31/1
f 348/30/1 349/83/1 329/125/1
f 328/34/1 327/35/1 326/31/1
f 329/125/1 328/34/1 326/31/1
f 348/30/1 329/125/1 326/31/1
f 330/123/1 329/125/1 350/126/1
f 350/126/1 329/125/1 349/83/1
f 350/126/1 347/38/1 346/39/1
f 350/126/1 346/39/1 345/3/1
f 331/40/1 330/123/1 334/41/1
f 345/3/1 344/127/1 342/112/1
f 344/127/1 343/113/1 342/112/1
f 330/123/1 350/126/1 340/28/1
f 350/126/1 345/3/1 340/28/1
f 332/45/1 331/40/1 333/46/1
f 334/41/1 333/46/1 331/40/1
f 336/47/1 334/41/1 339/128/1
f 339/128/1 330/123/1 340/28/1
f 337/49/1 336/47/1 339/128/1
f 339/128/1 338/50/1 337/49/1
f 330/123/1 339/128/1 334/41/1
f 342/112/1 341/9/1 345/3/1
f 354/12/4 353/8/4 351/5/4
f 352/7/5 351/51/5 353/8/5
